HIERARCHY
ROOT Hips
{
	OFFSET -3.958830 18.904000 13.208200
	CHANNELS 6 Xposition Yposition Zposition Zrotation Yrotation Xrotation 
	JOINT LHipJoint
	{
		OFFSET 0.000000 0.000000 0.000000
		CHANNELS 3 Zrotation Yrotation Xrotation
		JOINT LeftUpLeg
		{
			OFFSET 1.800000 -1.400000 0.085000
			CHANNELS 3 Zrotation Yrotation Xrotation
			JOINT LeftLeg
			{
				OFFSET 2.215000 -6.000000 0.000000
				CHANNELS 3 Zrotation Yrotation Xrotation
				JOINT LeftFoot
				{
					OFFSET 2.500000 -6.900000 0.000000
					CHANNELS 3 Zrotation Yrotation Xrotation
					JOINT LeftToeBase
					{
						OFFSET 0.200000 -0.500000 1.950000
						CHANNELS 3 Zrotation Yrotation Xrotation
						End Site
						{
							OFFSET 0.000000 0.000000 0.000000
						}
					}
				}
			}
		}
	}
	JOINT RHipJoint
	{
		OFFSET 0.000000 0.000000 0.000000
		CHANNELS 3 Zrotation Yrotation Xrotation
		JOINT RightUpLeg
		{
			OFFSET -1.800000 -1.400000 0.085000
			CHANNELS 3 Zrotation Yrotation Xrotation
			JOINT RightLeg
			{
				OFFSET -2.215000 -6.000000 0.000000
				CHANNELS 3 Zrotation Yrotation Xrotation
				JOINT RightFoot
				{
					OFFSET -2.500000 -6.900000 0.000000
					CHANNELS 3 Zrotation Yrotation Xrotation
					JOINT RightToeBase
					{
						OFFSET -0.200000 -0.500000 1.950000
						CHANNELS 3 Zrotation Yrotation Xrotation
						End Site
						{
							OFFSET 0.000000 0.000000 0.000000
						}
					}
				}
			}
		}
	}
	JOINT LowerBack
	{
		OFFSET 0.000000 0.000000 0.000000
		CHANNELS 3 Zrotation Yrotation Xrotation
		JOINT Spine
		{
			OFFSET -0.087000 1.940000 -0.288900
			CHANNELS 3 Zrotation Yrotation Xrotation
			JOINT Spine1
			{
				OFFSET 0.000000 1.950000 0.060000
				CHANNELS 3 Zrotation Yrotation Xrotation
				JOINT Neck
				{
					OFFSET 0.000000 0.000000 0.000000
					CHANNELS 3 Zrotation Yrotation Xrotation
					JOINT Neck1
					{
						OFFSET 0.000000 1.600000 0.340000
						CHANNELS 3 Zrotation Yrotation Xrotation
						JOINT Head
						{
							OFFSET 0.000000 1.667000 -0.240000
							CHANNELS 3 Zrotation Yrotation Xrotation
							End Site
							{
								OFFSET 0.000000 0.000000 0.000000
							}
						}
					}
				}
				JOINT LeftShoulder
				{
					OFFSET 0.000000 0.000000 0.000000
					CHANNELS 3 Zrotation Yrotation Xrotation
					JOINT LeftArm
					{
						OFFSET 2.700000 1.550000 -0.730000
						CHANNELS 3 Zrotation Yrotation Xrotation
						JOINT LeftForeArm
						{
							OFFSET 5.450000 0.000000 0.000000
							CHANNELS 3 Zrotation Yrotation Xrotation
							JOINT LeftHand
							{
								OFFSET 3.450000 0.000000 0.000000
								CHANNELS 3 Zrotation Yrotation Xrotation
								JOINT LeftHandIndex1
								{
									OFFSET 0.750000 0.000000 0.000000
									CHANNELS 3 Zrotation Yrotation Xrotation
									End Site
									{
										OFFSET 0.000000 0.000000 0.000000
									}
								}
							}
						}
					}
				}
				JOINT RightShoulder
				{
					OFFSET 0.000000 0.000000 0.000000
					CHANNELS 3 Zrotation Yrotation Xrotation
					JOINT RightArm
					{
						OFFSET -2.700000 1.550000 -0.730000
						CHANNELS 3 Zrotation Yrotation Xrotation
						JOINT RightForeArm
						{
							OFFSET -5.450000 0.000000 0.000000
							CHANNELS 3 Zrotation Yrotation Xrotation
							JOINT RightHand
							{
								OFFSET -3.450000 0.000000 0.000000
								CHANNELS 3 Zrotation Yrotation Xrotation
								JOINT RightHandIndex1
								{
									OFFSET -0.750000 0.000000 0.000000
									CHANNELS 3 Zrotation Yrotation Xrotation
									End Site
									{
										OFFSET 0.000000 0.000000 0.000000
									}
								}
							}
						}
					}
				}
			}
		}
	}
}
MOTION
Frames: 8
Frame Time: 0.016667
4.020750 16.080310 -0.892850 -1.888531 16.848582 -7.593909 -15.161163 13.161646 3.174279 -0.334595 -5.596264 -18.156366 1.505984 5.715010 39.406540 -0.542454 6.555139 2.106896 0.399610 0.219810 0.308690 18.287113 -10.471135 3.509734 1.570647 4.599375 -36.874804 -4.786774 -2.607404 23.214928 -0.080200 -2.233529 3.413796 0.276430 0.157940 0.143470 -3.991331 -1.640217 -8.013390 10.855534 -6.383601 21.643910 -11.912726 -2.246421 15.926596 6.345071 0.644162 -13.458038 -1.243942 -0.115625 39.363422 -1.769630 -0.178440 -16.802570 -9.862610 -26.007222 7.091594 -45.561468 -21.290980 -7.144835 23.492518 -34.649197 -11.015261 -3.640075 2.715160 0.691790 0.048000 0.066490 0.016630 -2.769819 25.340703 10.235167 71.602832 17.319473 -14.989305 -29.564149 37.559945 -14.756666 1.655900 -1.338634 -0.316830 0.419120 0.194420 -0.294270 
3.980200 16.081810 -0.889980 -2.117768 15.679193 -7.608880 -15.177872 13.181311 3.148023 0.163824 -5.564652 -18.222325 1.747290 5.643994 39.321569 -0.567830 6.556278 2.102170 0.387710 0.206350 0.315650 18.248387 -10.515563 3.441664 -0.197454 3.791564 -34.851352 -1.787741 -2.495730 13.285406 0.035601 -1.472286 3.700762 0.274990 0.166720 0.155980 -3.890105 -1.552492 -7.995021 10.003082 -5.055978 21.548863 -10.341213 -1.379840 16.304618 5.921017 1.550208 -13.614933 0.592059 -0.658611 39.038295 -2.254130 0.483150 -16.691750 -7.707248 -26.743057 7.399674 -46.007136 -22.395273 -6.751766 23.104268 -35.201661 -11.179014 -3.654653 2.706602 0.691720 0.071570 0.062970 0.005370 -4.020671 25.651374 10.356435 71.242008 17.319659 -13.804081 -29.847928 33.452648 -13.414889 1.678301 -1.390567 -0.326820 0.414730 0.205210 -0.307870 
3.948160 16.089540 -0.874100 -2.685608 14.499553 -7.189993 -15.164114 13.116961 3.020380 0.942468 -5.315285 -18.210017 1.679244 5.672737 38.445247 -0.575993 6.442282 2.159601 0.360200 0.179770 0.299550 18.265838 -10.462330 3.512726 -1.991702 3.419898 -33.290046 0.711706 -2.243653 5.470671 0.067379 -1.342398 3.777300 0.261980 0.195060 0.158640 -3.907267 -1.418696 -8.002660 10.274324 -4.022926 20.718142 -9.163021 -0.687023 16.204582 5.351391 2.031500 -13.533420 1.571378 -1.160513 38.293769 -2.702890 0.815660 -15.578210 -5.682408 -26.456237 7.367629 -46.554689 -23.518502 -5.750902 20.794540 -35.973045 -10.509112 -3.675596 2.711533 0.654950 0.106510 0.037390 0.009400 -4.930262 25.032654 10.302902 71.754442 16.914830 -12.936435 -30.554877 30.480106 -12.540647 1.715866 -1.447525 -0.331250 0.407050 0.206810 -0.302120 
3.908460 16.121810 -0.859870 -3.425211 13.494308 -6.979669 -15.152212 13.129903 2.855833 1.796447 -4.800463 -17.740170 1.796844 5.526874 36.535385 -0.601614 6.132523 2.281543 0.326770 0.140790 0.277090 18.268074 -10.423263 3.623153 -3.623590 3.249828 -32.158564 2.349871 -2.052944 1.127174 0.060639 -1.483479 3.750566 0.230830 0.208560 0.165140 -3.909636 -1.364511 -8.010447 10.395016 -3.238457 20.257755 -7.658027 -0.279661 15.904465 4.721133 2.395598 -13.653671 2.376043 -1.302461 37.877040 -3.015340 1.401970 -14.279140 -4.845440 -26.314855 7.631218 -46.291719 -22.831586 -6.158929 18.133746 -39.324465 -10.266943 -3.659913 2.738618 0.622450 0.130810 0.013400 0.007230 -4.519680 24.731680 10.298213 71.153935 16.124440 -12.537978 -31.485535 27.723679 -11.769927 1.758712 -1.492142 -0.324610 0.372910 0.209260 -0.297870 
3.867360 16.169160 -0.834570 -4.291337 12.833519 -6.911809 -15.146435 13.241093 2.711396 2.818440 -4.201707 -16.999835 1.998979 5.323541 34.256345 -0.630551 5.782790 2.428075 0.274560 0.076990 0.252000 18.245172 -10.467546 3.655105 -5.029302 3.033726 -31.015652 3.029033 -2.032326 -0.189310 0.059582 -1.631943 3.722003 0.182740 0.224840 0.164650 -3.879875 -1.388867 -7.980467 10.423358 -2.634791 19.796457 -5.904485 -0.113612 15.295950 4.105553 2.756282 -13.782645 3.092204 -1.534889 37.947481 -3.670840 2.041930 -12.777230 -4.321722 -25.794312 7.857993 -46.176006 -21.802017 -6.625923 14.647890 -43.050662 -9.686642 -3.649592 2.756933 0.598250 0.153680 -0.010900 0.000550 -3.823979 24.029874 10.222886 70.161889 14.992416 -12.056167 -30.886900 25.636315 -10.629023 1.804370 -1.502145 -0.327820 0.346940 0.217460 -0.297620 
3.815150 16.228670 -0.804020 -4.718583 12.254576 -6.725187 -15.165270 13.370148 2.620312 3.522458 -3.711071 -16.296816 2.191222 5.136161 32.099392 -0.662492 5.486393 2.563855 0.224340 0.007170 0.230420 18.194787 -10.540265 3.621169 -6.630773 2.709419 -30.073205 3.512888 -2.165899 0.118386 0.067535 -1.768371 3.690708 0.139750 0.255530 0.168080 -3.774130 -1.457634 -7.920535 9.378410 -1.988786 19.356232 -3.804678 -0.075636 14.556915 3.374308 3.091340 -13.742177 3.864206 -1.631678 37.744233 -4.242010 2.745220 -11.278100 -3.647778 -24.711981 7.947909 -46.050967 -20.328280 -7.140670 9.994533 -47.107568 -8.527849 -3.657757 2.787519 0.580720 0.183160 -0.039200 -0.001760 -2.973993 22.909496 9.906421 69.087348 14.423429 -11.089195 -29.392762 23.502840 -9.288039 1.847403 -1.498059 -0.342550 0.333390 0.229420 -0.299760 
3.758880 16.287260 -0.762620 -5.240445 11.423191 -6.135677 -15.179827 13.503761 2.551945 4.463599 -3.196771 -15.854593 2.038590 5.067793 29.549339 -0.697249 5.167092 2.712277 0.162520 -0.071630 0.203050 18.148012 -10.637227 3.556936 -7.851470 2.536860 -29.574829 3.731850 -2.395893 1.674066 0.093138 -1.849198 3.682148 0.091330 0.292430 0.162590 -3.669521 -1.517287 -7.840967 8.351300 -1.450128 18.559523 -1.748251 -0.127524 13.038106 2.699478 3.436235 -13.388639 4.660225 -1.600097 37.387510 -4.906800 3.678170 -9.797310 -3.325638 -22.221597 7.695450 -46.491317 -18.632502 -7.075330 3.508825 -51.135380 -6.158539 -3.692975 2.834563 0.562300 0.215010 -0.071820 -0.005350 -1.886358 20.342257 9.065236 68.209103 13.927541 -9.918739 -27.019555 22.464157 -8.050577 1.890934 -1.458111 -0.364960 0.328260 0.243870 -0.301720 
3.695430 16.350630 -0.730030 -5.720590 10.389133 -5.567723 -15.195304 13.637846 2.526536 5.462713 -2.833560 -15.714206 1.848675 5.058229 27.525147 -0.707161 4.945805 2.826273 0.105300 -0.149750 0.169790 18.100016 -10.753001 3.451599 -8.891640 2.400298 -29.315408 3.735761 -2.737562 4.312942 0.121849 -1.927796 3.668177 0.041220 0.338080 0.165660 -3.552956 -1.591791 -7.757522 7.120154 -0.943120 17.899441 0.471952 -0.154031 11.541369 1.871597 3.639546 -13.090932 5.157820 -1.351855 37.161950 -5.124940 4.544140 -7.983810 -2.807400 -19.710106 7.565970 -46.702514 -16.545461 -6.934967 -4.706333 -55.196424 -2.525107 -3.727109 2.934353 0.541490 0.247210 -0.105370 0.000530 -0.668711 17.831069 8.147674 66.935243 13.399943 -8.988731 -24.895146 21.626153 -7.035981 1.936455 -1.425309 -0.381810 0.317700 0.255390 -0.294820 
